<svg version="1.1" xmlns="http://www.w3.org/2000/svg" style="display: block;" viewBox="0 0 2048 2048" width="626" height="626" preserveAspectRatio="none">
<defs>
	<linearGradient id="Gradient1" gradientUnits="userSpaceOnUse" x1="1190.48" y1="848.537" x2="1245.58" y2="905.467">
		<stop class="stop0" offset="0" stop-opacity="1" stop-color="rgb(7,9,7)"/>
		<stop class="stop1" offset="1" stop-opacity="1" stop-color="rgb(37,36,38)"/>
	</linearGradient>
	<linearGradient id="Gradient2" gradientUnits="userSpaceOnUse" x1="1194.61" y1="396.317" x2="1180.4" y2="532.355">
		<stop class="stop0" offset="0" stop-opacity="1" stop-color="rgb(0,0,0)"/>
		<stop class="stop1" offset="1" stop-opacity="1" stop-color="rgb(39,38,39)"/>
	</linearGradient>
	<linearGradient id="Gradient3" gradientUnits="userSpaceOnUse" x1="1320.78" y1="970.122" x2="1339.7" y2="882.354">
		<stop class="stop0" offset="0" stop-opacity="1" stop-color="rgb(0,0,0)"/>
		<stop class="stop1" offset="1" stop-opacity="1" stop-color="rgb(42,42,43)"/>
	</linearGradient>
	<linearGradient id="Gradient4" gradientUnits="userSpaceOnUse" x1="1293.73" y1="602.29" x2="1347.67" y2="780.968">
		<stop class="stop0" offset="0" stop-opacity="1" stop-color="rgb(0,0,0)"/>
		<stop class="stop1" offset="1" stop-opacity="1" stop-color="rgb(34,35,36)"/>
	</linearGradient>
	<linearGradient id="Gradient5" gradientUnits="userSpaceOnUse" x1="1302.09" y1="1287.15" x2="1281.1" y2="1150.59">
		<stop class="stop0" offset="0" stop-opacity="1" stop-color="rgb(0,0,0)"/>
		<stop class="stop1" offset="1" stop-opacity="1" stop-color="rgb(38,36,37)"/>
	</linearGradient>
	<linearGradient id="Gradient6" gradientUnits="userSpaceOnUse" x1="1029.07" y1="513.348" x2="1093.16" y2="517.773">
		<stop class="stop0" offset="0" stop-opacity="1" stop-color="rgb(0,0,0)"/>
		<stop class="stop1" offset="1" stop-opacity="1" stop-color="rgb(44,42,43)"/>
	</linearGradient>
	<linearGradient id="Gradient7" gradientUnits="userSpaceOnUse" x1="1195.99" y1="381.954" x2="1131.15" y2="262.574">
		<stop class="stop0" offset="0" stop-opacity="1" stop-color="rgb(2,4,2)"/>
		<stop class="stop1" offset="1" stop-opacity="1" stop-color="rgb(38,37,37)"/>
	</linearGradient>
</defs>
<path transform="translate(0,0)" fill="rgb(255,255,255)" d="M 0 0 L 2048 0 L 2048 730.391 L 2048 737.995 L 2048 777.563 L 2048 785.897 L 2048 830.88 L 2048 839.092 L 2048 869.287 L 2048 870.376 L 2048 877.741 L 2048 911.167 L 2048 919.659 L 2048 985.306 L 2048 993.13 L 2048 1029.96 L 2048 1038.26 L 2048 1068.87 L 2048 1077.08 L 2048 1122.29 L 2048 1130.28 L 2048 1169.71 L 2048 1178.14 L 2048 2048 L 0 2048 L 0 1137.67 L 0 1129.76 L 0 1093.03 L 0 1091.76 L 0 1084.71 L 0 1054.06 L 0 1045.75 L 0 1019.69 L 0 1011.98 L 0 982.27 L 0 974.033 L 0 948.379 L 0 941.344 L 0 940.232 L 0 0 z"/>
<path transform="translate(0,0)" fill="rgb(1,1,1)" d="M 126.528 872.223 C 115.537 905.781 72.0427 889.13 82.7291 860.728 C 85.1866 854.331 90.2295 849.269 96.6165 846.786 C 111.195 841.074 122.072 850.75 126.588 864.18 C 157.508 864.578 188.855 864.502 219.776 864.274 C 397.491 862.967 575.743 866.232 753.386 864.046 C 793.877 903.237 834.538 945.008 874.449 984.986 C 892.931 985.93 918.292 985.209 937.218 985.211 L 1054.44 985.217 L 1391.35 985.12 C 1397.79 979.759 1409.32 967.564 1415.49 961.36 C 1432.12 944.375 1448.98 927.612 1466.05 911.075 C 1530.75 911.939 1597.55 911.145 1662.42 911.149 L 2048 911.167 L 2048 919.659 C 2003.9 918.984 1958.23 919.555 1914.02 919.559 L 1657.75 919.583 L 1531.08 919.555 C 1517.73 919.549 1480.62 918.624 1468.92 920.121 L 1396.23 993.096 L 870.419 993.174 C 830.104 954.598 788.495 911.796 749.066 871.985 L 126.528 872.223 z"/>
<path transform="translate(0,0)" fill="rgb(255,255,255)" d="M 100.084 854.426 C 107.614 852.478 115.308 856.959 117.331 864.47 C 119.353 871.98 114.949 879.718 107.459 881.816 C 99.8629 883.943 91.9905 879.463 89.9394 871.845 C 87.8883 864.228 92.4466 856.401 100.084 854.426 z"/>
<path transform="translate(0,0)" fill="rgb(9,9,9)" d="M 1457.21 1169.56 C 1523.66 1170.56 1592.57 1169.7 1659.21 1169.7 L 2048 1169.71 L 2048 1178.14 L 1461.58 1178.05 C 1451.29 1187.25 1438.14 1201.2 1428.19 1211.16 L 1365.9 1273.47 L 1300 1339.34 C 1287.29 1352 1272.46 1366 1260.5 1379.13 L 1260.69 1577.67 C 1224.47 1611.24 1184.27 1653.45 1149.09 1688.91 L 796.074 1689.03 C 789.736 1703.17 777.699 1713.01 762.253 1704.36 C 756.842 1701.3 752.906 1696.18 751.352 1690.16 C 746.736 1672.82 758.943 1664.78 773.714 1661.53 C 787.098 1665.03 790.83 1667.54 795.802 1680.56 L 1025.3 1680.5 C 1061.82 1680.51 1109.13 1679.2 1144.77 1680.76 C 1170.45 1656.77 1195.93 1628.5 1221.49 1604.11 C 1228.49 1597.42 1245.51 1579.02 1252.13 1574.36 L 1252.07 1375.09 L 1393.14 1233.88 C 1412.75 1214.28 1438.8 1189.72 1457.21 1169.56 z"/>
<path transform="translate(0,0)" fill="rgb(255,255,255)" d="M 770.114 1670.72 C 777.763 1669.04 785.338 1673.84 787.069 1681.48 C 788.8 1689.12 784.038 1696.73 776.41 1698.5 C 768.716 1700.29 761.034 1695.48 759.288 1687.78 C 757.542 1680.07 762.4 1672.42 770.114 1670.72 z"/>
<path transform="translate(0,0)" fill="rgb(1,1,1)" d="M 795.95 227.165 C 782.573 260.83 744.438 245.08 751.867 217.479 C 753.566 211.364 757.607 206.165 763.114 203.009 C 778.758 194.163 789.52 205.111 795.88 218.665 C 832.044 219.314 870.006 218.765 906.299 218.763 L 1148.17 218.884 C 1186.04 255.127 1222.81 294.232 1260.58 330.879 C 1259.37 395.987 1260.57 464.141 1260.4 529.564 C 1273.86 540.685 1300.69 569.039 1313.66 582.007 L 1407.82 676.268 C 1424.86 693.342 1444.85 714.414 1462.55 730.419 L 1659.22 730.362 L 2048 730.391 L 2048 737.995 C 1981.77 737.278 1914.24 737.95 1847.93 737.949 L 1456.86 737.999 C 1435.22 714.485 1405.78 686.684 1382.86 663.79 L 1252.11 533.16 L 1252.25 334.816 C 1216.89 300.842 1178.37 262.245 1144.29 226.953 C 1028.9 228.404 911.591 226.669 795.95 227.165 z"/>
<path transform="translate(0,0)" fill="rgb(255,255,255)" d="M 769.782 209.547 C 774.84 208.29 780.181 209.905 783.695 213.755 C 787.209 217.604 788.331 223.07 786.619 227.993 C 784.906 232.916 780.635 236.505 775.49 237.343 C 767.974 238.567 760.83 233.644 759.298 226.184 C 757.766 218.725 762.391 211.385 769.782 209.547 z"/>
<path transform="translate(0,0)" fill="rgb(1,1,1)" d="M 1457.52 1121.99 C 1524.88 1123.35 1595.77 1122.27 1663.32 1122.27 L 2048 1122.29 L 2048 1130.28 L 1666.63 1130.23 C 1598.73 1130.23 1529.09 1129.43 1461.41 1130.3 L 1229.86 1361.94 L 1229.88 1469.36 C 1229.89 1488.82 1229.32 1512.1 1230.27 1531.33 C 1211.48 1550.39 1192.59 1569.35 1173.59 1588.21 C 1167.34 1594.45 1151.87 1610.67 1145.91 1615.39 L 1144.55 1616.99 L 1143.69 1616.29 C 1143.39 1613.04 1143.34 1610.03 1143.25 1606.78 C 1145.65 1602.86 1164.68 1584.2 1169.3 1579.69 C 1186.74 1562.65 1204.19 1544.33 1222.02 1527.79 C 1221.07 1471.53 1222.53 1414.18 1221.8 1357.69 L 1457.52 1121.99 z"/>
<path transform="translate(0,0)" fill="rgb(9,9,9)" d="M 1365.51 1068.77 L 2048 1068.87 L 2048 1077.08 L 1369.78 1077.07 C 1352.72 1092.33 1329.6 1116.89 1312.95 1133.55 L 1210.4 1236.39 C 1220.61 1255.39 1209.38 1273.73 1188.95 1270.84 C 1154.55 1265.98 1167.08 1213.72 1204.32 1230.07 C 1245.98 1189.61 1286.33 1147.43 1327.78 1106.73 C 1340.44 1094.3 1353.17 1081.52 1365.51 1068.77 z"/>
<path transform="translate(0,0)" fill="rgb(255,255,255)" d="M 1186.88 1235.65 C 1191.79 1233.87 1197.29 1234.93 1201.19 1238.4 C 1205.1 1241.87 1206.79 1247.21 1205.6 1252.29 C 1204.41 1257.38 1200.54 1261.41 1195.5 1262.8 C 1188.11 1264.83 1180.45 1260.67 1178.13 1253.37 C 1175.81 1246.07 1179.68 1238.24 1186.88 1235.65 z"/>
<path transform="translate(0,0)" fill="rgb(9,9,9)" d="M 1365.52 839.155 C 1351.62 823.433 1210.45 682.177 1204.7 679.364 C 1201.84 677.964 1189.79 682.306 1184.02 680.44 C 1178.62 678.692 1173.6 673.95 1171.28 668.818 C 1168.7 663.109 1168.67 655.42 1171 649.628 C 1173.21 644.183 1177.63 639.937 1183.16 637.954 C 1189.23 635.732 1195.93 636.011 1201.78 638.731 C 1214.9 644.834 1217.19 658.134 1211 670.291 L 1210.37 671.493 C 1216.31 677.344 1222.38 683.12 1227.8 689.448 C 1232.67 693.023 1243.65 704.588 1248.71 709.642 L 1287.92 748.873 L 1331.04 791.943 C 1335.05 795.957 1348.75 809.176 1351.43 812.98 C 1357.79 818.837 1364.09 825.405 1370.29 831.03 L 2048 830.88 L 2048 839.092 C 1953.54 838.13 1857.34 839.05 1762.76 839.051 L 1365.52 839.155 z"/>
<path transform="translate(0,0)" fill="rgb(31,31,31)" d="M 1351.43 812.98 C 1351.53 815.805 1351.82 815.873 1352.75 818.687 L 1351.98 819.477 C 1344.41 812.959 1333.81 801.756 1326.38 794.345 L 1279.56 747.605 L 1239.36 707.427 C 1232.12 700.183 1221.2 689.759 1215.05 682.045 C 1218.95 685.119 1222.01 687.315 1226.15 690.073 L 1227.8 689.448 C 1232.67 693.023 1243.65 704.588 1248.71 709.642 L 1287.92 748.873 L 1331.04 791.943 C 1335.05 795.957 1348.75 809.176 1351.43 812.98 z"/>
<path transform="translate(0,0)" fill="rgb(255,255,255)" d="M 1186.7 645.637 C 1191.56 643.779 1197.05 644.729 1201 648.113 C 1204.95 651.497 1206.73 656.772 1205.63 661.857 C 1204.54 666.943 1200.76 671.022 1195.77 672.487 C 1188.46 674.631 1180.77 670.627 1178.33 663.416 C 1175.9 656.204 1179.6 648.357 1186.7 645.637 z"/>
<path transform="translate(0,0)" fill="rgb(1,1,1)" d="M 661.066 921.606 C 664.819 907.826 675.487 899.475 689.819 904.512 C 695.74 906.583 700.592 910.927 703.302 916.584 C 716.312 944.33 672.946 965.334 660.594 929.989 L 382.796 930.005 C 336.379 930.007 287.907 930.743 241.633 929.951 C 223.616 946.95 206.574 965.041 188.84 982.297 L 0 982.27 L 0 974.033 L 184.838 974.038 L 237.279 921.663 L 661.066 921.606 z"/>
<path transform="translate(0,0)" fill="rgb(255,255,255)" d="M 680.527 911.793 C 688.31 910.41 695.738 915.607 697.106 923.392 C 698.474 931.178 693.262 938.596 685.473 939.949 C 677.707 941.297 670.314 936.103 668.95 928.339 C 667.586 920.575 672.765 913.173 680.527 911.793 z"/>
<path transform="translate(0,0)" fill="rgb(9,9,9)" d="M 1202.5 1186.23 C 1216.82 1173.05 1231.98 1157.03 1245.92 1143.03 L 1314.04 1074.93 C 1323.46 1065.5 1346.7 1040.62 1355.86 1033.47 C 1359.22 1034.15 1358.22 1033.44 1360.5 1035.47 C 1361.19 1037.81 1360.53 1037.05 1362.03 1038.53 C 1359.11 1042.61 1349.33 1051.89 1345.42 1055.81 L 1311.16 1090.07 C 1277.82 1123.39 1240.44 1162.84 1206.54 1194.5 C 1195.73 1194.83 1185.35 1194.62 1174.71 1194.85 C 1159.79 1209.68 1141.55 1228.96 1126.39 1242.85 C 1126.34 1258.86 1126.43 1274.87 1126.65 1290.88 C 1123.62 1293.93 1115.82 1302.09 1112.83 1304.28 C 1106.12 1311.65 1098.87 1318.74 1091.82 1325.8 L 1091.83 1456.53 C 1093.51 1457.12 1095.15 1457.82 1096.74 1458.64 C 1108.11 1464.38 1114.63 1477.28 1108.06 1489.5 C 1103.36 1498.24 1096.55 1500.39 1087.58 1502.9 C 1085.06 1502.28 1082.56 1501.53 1080.12 1500.65 C 1074.13 1498.43 1069.32 1493.86 1066.8 1488 C 1064.39 1482.36 1064.46 1475.97 1067 1470.38 C 1070.6 1462.56 1076.37 1459.1 1084.13 1456.39 C 1083.28 1419 1084.4 1381.26 1083.98 1343.84 C 1083.9 1336.49 1084.11 1329.65 1083.42 1322.3 C 1089.68 1315.69 1095.02 1310.05 1101.82 1303.93 C 1103.32 1301.64 1115.38 1289.93 1118.05 1287.26 L 1117.91 1238.45 C 1132.88 1225.41 1155.82 1200.87 1170.91 1186.03 C 1180.95 1186.36 1192.36 1186.18 1202.5 1186.23 z"/>
<path transform="translate(0,0)" fill="rgb(255,255,255)" d="M 1085.6 1465.53 C 1093.25 1464.35 1100.43 1469.55 1101.69 1477.19 C 1102.95 1484.83 1097.82 1492.06 1090.2 1493.41 C 1085.19 1494.29 1080.09 1492.41 1076.85 1488.5 C 1073.61 1484.58 1072.73 1479.22 1074.54 1474.46 C 1076.35 1469.71 1080.57 1466.3 1085.6 1465.53 z"/>
<path transform="translate(0,0)" fill="rgb(1,1,1)" d="M 1355.86 1033.47 C 1358.99 1030.13 1358.81 1030.12 1363.16 1030.05 C 1387.69 1029.66 1412.24 1029.97 1436.77 1029.97 L 1586.32 1029.97 L 2048 1029.96 L 2048 1038.26 L 1601.36 1038.21 L 1447.62 1038.2 C 1420.21 1038.19 1388.93 1037.4 1362.03 1038.53 C 1360.53 1037.05 1361.19 1037.81 1360.5 1035.47 C 1358.22 1033.44 1359.22 1034.15 1355.86 1033.47 z"/>
<path transform="translate(0,0)" fill="rgb(9,9,9)" d="M 1567.01 963.728 C 1563.16 978.846 1551.29 986.032 1536.7 980.82 C 1507.99 970.565 1526.94 927.679 1553.93 938.626 C 1561.2 941.574 1564.8 948.826 1567.35 955.85 C 1633.63 957.479 1706.3 955.941 1773.13 955.983 L 1840.06 956.017 C 1849.53 956.024 1869.17 956.549 1877.47 955.211 C 1887.42 965.392 1897.53 975.413 1907.79 985.271 L 2048 985.306 L 2048 993.13 L 1903.06 993.163 C 1894.07 983.413 1883.19 972.994 1873.7 963.541 L 1567.01 963.728 z"/>
<path transform="translate(0,0)" fill="rgb(255,255,255)" d="M 1539.92 946.606 C 1544.78 944.824 1550.23 945.839 1554.13 949.253 C 1558.03 952.668 1559.75 957.937 1558.63 962.995 C 1557.5 968.053 1553.7 972.092 1548.72 973.53 C 1541.39 975.647 1533.7 971.574 1531.32 964.319 C 1528.95 957.064 1532.75 949.232 1539.92 946.606 z"/>
<path transform="translate(0,0)" fill="rgb(1,1,1)" d="M 2048 870.376 L 2048 877.741 L 1585.5 877.746 L 1434.85 877.75 C 1425.05 877.751 1360.87 878.619 1357.38 876.712 C 1359.09 874.799 1360.42 872.894 1361.93 870.834 C 1378.29 869.307 1414.92 870.484 1433.02 870.486 L 1575.63 870.494 L 2048 870.376 z"/>
<path transform="translate(0,0)" fill="rgb(1,1,1)" d="M 311.152 992.004 C 325.599 992.891 344.326 992.381 359.027 992.382 L 443.339 992.367 L 534.018 992.382 C 550.029 992.381 569.82 992.88 585.611 992.074 C 594.855 1001.18 604.236 1010.26 613.122 1019.71 C 610.459 1020.08 609.932 1019.83 607.815 1021.06 C 609.619 1024.9 609.455 1023.01 608.747 1026.87 C 600.847 1019.96 589.342 1007.82 581.529 1000.1 C 493.857 1001.17 402.781 1000.64 314.991 1000.11 C 308.731 1006.58 302.1 1013.73 295.432 1019.69 L 0 1019.69 L 0 1011.98 L 290.455 1012.14 C 297.907 1005.35 304.031 998.734 311.152 992.004 z"/>
<path transform="translate(0,0)" fill="rgb(1,1,1)" d="M 1445.23 773.299 C 1450.49 773.879 1451.87 778.175 1458.75 780.395 C 1455.6 776.862 1454.47 775.237 1451.91 771.237 L 1452.43 769.202 C 1455.37 771.83 1458.43 774.471 1461.19 777.272 C 1523.55 778.127 1587.21 777.504 1649.65 777.498 L 2048 777.563 L 2048 785.897 L 1457.62 785.883 C 1452.91 781.433 1449.56 778.124 1445.23 773.299 z"/>
<path transform="translate(0,0)" fill="rgb(9,9,9)" d="M 1222.68 381.256 C 1224.07 387.496 1222.44 400.29 1223.75 404.192 C 1223.94 396.797 1224.27 389.103 1224.68 381.665 C 1224.92 377.378 1220.43 377.776 1220.89 374.302 C 1223.71 374.899 1224.76 375.769 1227.18 377.264 C 1228.24 379.184 1228.08 406.447 1228.38 411.711 C 1228.39 404.724 1227.88 386.21 1229.63 380.381 C 1230.65 435.089 1228.47 492.054 1230.04 546.337 L 1392.13 708.385 L 1433.06 749.142 C 1436.62 752.675 1450.44 766.163 1452.43 769.202 L 1451.91 771.237 C 1454.47 775.237 1455.6 776.862 1458.75 780.395 C 1451.87 778.175 1450.49 773.879 1445.23 773.299 C 1437.26 768.476 1395.23 723.785 1386.38 714.934 L 1221.88 550.228 L 1221.84 434.844 C 1221.84 424.334 1221.17 389.51 1222.68 381.256 z"/>
<path transform="translate(0,0)" fill="rgb(31,31,31)" d="M 871.09 1156.96 C 874.68 1146.73 884.409 1137.62 895.572 1143.47 C 900.529 1146.09 904.225 1150.59 905.825 1155.96 C 911.963 1176.91 885.805 1191.24 870.998 1165.76 C 795.539 1164.83 718.879 1166.87 643.709 1165.6 L 639.957 1167.53 L 639.354 1166.06 C 640.411 1164.06 640.399 1164.19 640.688 1161.96 L 637.662 1159.3 L 638.25 1157.77 C 649.658 1155.76 691.834 1157.26 706.164 1157.08 C 760.817 1156.38 816.509 1157.87 871.09 1156.96 z"/>
<path transform="translate(0,0)" fill="rgb(1,1,1)" d="M 637.662 1159.3 L 638.25 1157.77 L 639.324 1157.88 C 655.219 1159.28 683.381 1158.28 700.612 1158.26 L 815.898 1158.29 C 826.638 1158.29 861.329 1157.49 869.801 1158.82 C 871.163 1161.41 870.908 1160.04 870.368 1163.09 C 866.661 1165.76 818.198 1164.54 809.727 1164.54 L 687.781 1164.57 C 681.277 1164.58 646.728 1163.9 643.709 1165.6 L 639.957 1167.53 L 639.354 1166.06 C 640.411 1164.06 640.399 1164.19 640.688 1161.96 L 637.662 1159.3 z"/>
<path transform="translate(0,0)" fill="rgb(9,9,9)" d="M 1211.89 718.688 C 1228.77 734.209 1247.46 754.042 1263.94 770.523 L 1362.67 869.224 L 2048 869.287 L 2048 870.376 L 1575.63 870.494 L 1433.02 870.486 C 1414.92 870.484 1378.29 869.307 1361.93 870.834 C 1360.42 872.894 1359.09 874.799 1357.38 876.712 C 1353.25 870.714 1333.86 852.927 1329.68 848.35 C 1318.27 835.884 1208.19 729.043 1205.81 723.31 L 1206.53 719.715 C 1208.86 719.056 1209.47 719.028 1211.89 718.688 z"/>
<path transform="translate(0,0)" fill="rgb(1,1,1)" d="M 1088.1 590.463 C 1087.04 589.527 1084.34 587.433 1084.25 585.371 C 1082.51 541.479 1085.41 495.827 1083.35 452.049 C 1083.35 452.164 1068.49 443.195 1066.56 437.696 C 1064.42 431.565 1064.7 425.836 1066.54 420.652 C 1068.57 415.001 1072.88 410.463 1078.42 408.145 C 1107.6 395.983 1125.89 439.751 1093.13 450.346 L 1091.88 450.734 C 1090.89 493.8 1091.82 538.185 1092.18 581.328 C 1092.19 582.635 1094.07 584.869 1094.85 585.816 C 1092.13 586.067 1092.01 585.849 1089.75 587.258 L 1088.1 590.463 z"/>
<path transform="translate(0,0)" fill="rgb(255,255,255)" d="M 1084.5 414.704 C 1092.1 412.936 1099.7 417.64 1101.51 425.23 C 1103.31 432.82 1098.65 440.443 1091.07 442.288 C 1083.43 444.146 1075.74 439.44 1073.92 431.796 C 1072.1 424.151 1076.85 416.485 1084.5 414.704 z"/>
<path transform="translate(0,0)" fill="rgb(31,31,31)" d="M 165.667 926.913 C 161.073 916.73 162.698 905.258 174.155 900.955 C 179.226 899.063 184.847 899.308 189.734 901.635 C 206.321 909.479 200.741 933.229 184.012 935.81 C 179.763 936.465 177.434 935.317 173.437 934.086 C 168.881 934.628 161.616 944.455 156.875 947.942 C 152.733 949.449 16.371 948.381 0 948.379 L 0 941.344 L 0 940.232 L 152.413 940.31 C 156.852 936.014 161.653 931.571 165.667 926.913 z"/>
<path transform="translate(0,0)" fill="rgb(1,1,1)" d="M 0 941.344 L 102.876 941.319 C 114.421 941.316 142.877 940.545 153.419 941.729 C 154.939 943.768 156.599 945.463 156.875 947.942 C 152.733 949.449 16.371 948.381 0 948.379 L 0 941.344 z"/>
<path transform="translate(0,0)" fill="rgb(1,1,1)" d="M 588.88 1202.85 C 593.586 1202.1 594.184 1201.97 598.019 1199.18 L 598.062 1203.68 C 600.83 1204.11 600.652 1203.71 602.907 1205.26 C 594.911 1213.54 581.165 1210.83 569.552 1210.67 C 522.784 1210.01 470.035 1211.51 423.773 1210.67 C 403.731 1210.31 286.61 1212.5 280.47 1209.75 C 282.422 1208.09 282.689 1207.89 283.971 1205.77 L 284.899 1204.2 C 291.671 1201.38 392.469 1203.95 408.658 1203.44 C 446.757 1202.24 499.138 1204.48 538.587 1203.41 C 553.141 1203.01 575.113 1205.52 588.88 1202.85 z"/>
<path transform="translate(0,0)" fill="rgb(1,1,1)" d="M 0 1045.75 L 176.327 1045.72 C 205.179 1045.72 234.536 1045.56 263.42 1045.83 C 265.795 1045.85 266.878 1046.26 268.759 1047.69 C 266.444 1050.07 264.744 1051.44 263.416 1054.49 C 257.804 1053.69 242.537 1054.01 236.329 1054.02 L 182.623 1054.1 L 0 1054.06 L 0 1045.75 z"/>
<path transform="translate(0,0)" fill="rgb(31,31,31)" d="M 746.178 1026.69 C 748.332 1021.91 753.446 1014.43 758.512 1013.48 C 790.366 1007.49 789.91 1060.23 754.661 1047.43 C 750.6 1045.96 747.848 1039.14 745.705 1035.31 C 732.503 1035.24 620.279 1036.18 616.515 1034.55 L 614.376 1032.99 C 618.14 1030.43 618.288 1030.27 620.991 1026.65 L 622.048 1027.03 C 660.429 1025.01 706.909 1027.35 746.178 1026.69 z"/>
<path transform="translate(0,0)" fill="rgb(1,1,1)" d="M 620.991 1026.65 L 622.048 1027.03 C 626.895 1028.66 640.797 1028.14 646.389 1028.12 L 708.31 1027.88 C 717.092 1027.84 738.954 1026.03 744.976 1031.1 L 744.98 1032.48 C 732.965 1038.06 638.499 1030.29 616.515 1034.55 L 614.376 1032.99 C 618.14 1030.43 618.288 1030.27 620.991 1026.65 z"/>
<path transform="translate(0,0)" fill="url(#Gradient7)" d="M 1139.92 298.492 C 1132.35 300.019 1126.2 301.497 1119.27 296.677 C 1115.46 294.029 1112.91 289.941 1112.19 285.362 C 1111.3 280.112 1112.66 274.73 1115.94 270.535 C 1124.94 259.025 1148.38 263.259 1147.23 279.33 C 1147.05 281.768 1147.13 289.338 1147.44 292.186 C 1172.53 321.548 1203.71 347.832 1229.65 376.662 C 1229.96 377.012 1229.88 379.402 1229.63 380.381 C 1227.88 386.21 1228.39 404.724 1228.38 411.711 C 1228.08 406.447 1228.24 379.184 1227.18 377.264 C 1224.76 375.769 1223.71 374.899 1220.89 374.302 C 1220.43 377.776 1224.92 377.378 1224.68 381.665 C 1224.27 389.103 1223.94 396.797 1223.75 404.192 C 1222.44 400.29 1224.07 387.496 1222.68 381.256 L 1139.92 298.492 z"/>
<path transform="translate(0,0)" fill="rgb(1,1,1)" d="M 0 1129.76 L 156.701 1129.87 C 173.453 1129.82 195.176 1129.52 212.445 1129.8 C 213.362 1129.81 216.382 1132.58 217.211 1133.39 C 214.77 1135.37 212.745 1136.7 211.035 1139.34 C 206.611 1136.48 191.552 1137.61 185.722 1137.63 L 143.219 1137.65 L 0 1137.67 L 0 1129.76 z"/>
<path transform="translate(0,0)" fill="rgb(1,1,1)" d="M 0 1084.71 L 160.136 1084.69 C 182.241 1084.69 219.347 1083.48 239.917 1084.98 C 238.37 1089.36 239.325 1088.54 236.224 1091.26 C 217.118 1093.1 178.788 1091.69 157.709 1091.69 L 0 1091.76 L 0 1084.71 z"/>
<path transform="translate(0,0)" fill="rgb(31,31,31)" d="M 239.917 1084.98 C 244.127 1089.89 248.683 1094.16 253.326 1098.66 C 260.337 1097.65 269.352 1095.98 275.231 1100.78 C 283.125 1107.23 285.321 1118.63 278.376 1126.45 C 274.744 1130.54 269.628 1133 264.169 1133.28 C 247.531 1134.2 244.703 1118.77 247.562 1105.71 C 243.865 1101.93 238.576 1096.8 235.253 1092.91 L 0 1093.03 L 0 1091.76 L 157.709 1091.69 C 178.788 1091.69 217.118 1093.1 236.224 1091.26 C 239.325 1088.54 238.37 1089.36 239.917 1084.98 z"/>
<path transform="translate(0,0)" fill="rgb(31,31,31)" d="M 496.336 1089.39 L 495.815 1088.28 C 491.307 1078.4 491.419 1067.19 502.813 1062.47 C 517.838 1056.25 537.27 1070.49 527.907 1086.44 C 525.896 1089.86 522.042 1094.65 517.691 1095.66 C 502.339 1097.57 507.172 1091.48 496.217 1102.39 L 494.27 1101.08 C 490.616 1101.16 486.976 1099.69 483.165 1099.6 C 428.556 1098.23 373.19 1100.21 318.638 1099.08 L 318.611 1097.99 L 488.068 1098.02 C 490.78 1095.32 493.954 1092.34 496.336 1089.39 z"/>
<path transform="translate(0,0)" fill="rgb(1,1,1)" d="M 1124.5 614.128 C 1128.78 620.76 1126.28 655.253 1126.24 664.984 C 1142.45 680.912 1158.94 698.068 1175.21 713.65 C 1182.97 713.694 1190.48 713.486 1198.23 713.239 C 1204.99 713.023 1207.4 713.562 1211.89 718.688 C 1209.47 719.028 1208.86 719.056 1206.53 719.715 L 1205.81 723.31 C 1200.97 719.894 1178.26 721.491 1170.85 721.733 L 1117.95 669.037 C 1118.02 653.507 1118.55 634.826 1117.72 619.566 C 1121.57 617.86 1121.69 617.449 1124.5 614.128 z"/>
<path transform="translate(0,0)" fill="rgb(1,1,1)" d="M 318.638 1099.08 C 373.19 1100.21 428.556 1098.23 483.165 1099.6 C 486.976 1099.69 490.616 1101.16 494.27 1101.08 L 496.217 1102.39 C 494.303 1104.21 492.959 1106.18 490.443 1106.26 C 472.422 1106.82 452.087 1106.56 434.249 1106.56 L 357.189 1106.55 C 349.597 1106.55 317.653 1107.59 312.745 1105.1 C 317.277 1102.05 316.477 1103.46 318.638 1099.08 z"/>
<path transform="translate(0,0)" fill="rgb(9,9,9)" d="M 217.211 1133.39 C 238.649 1156.19 263.377 1179.92 285.742 1202.16 L 503.357 1202.26 C 514.727 1202.24 583.183 1201.56 588.88 1202.85 C 575.113 1205.52 553.141 1203.01 538.587 1203.41 C 499.138 1204.48 446.757 1202.24 408.658 1203.44 C 392.469 1203.95 291.671 1201.38 284.899 1204.2 L 283.971 1205.77 C 282.689 1207.89 282.422 1208.09 280.47 1209.75 C 276.412 1204.15 265.424 1194.11 260.25 1188.74 C 244.554 1172.45 226.129 1156.06 211.035 1139.34 C 212.745 1136.7 214.77 1135.37 217.211 1133.39 z"/>
<path transform="translate(0,0)" fill="rgb(31,31,31)" d="M 1116.57 1612.42 C 1130.08 1603.86 1134.67 1611.64 1143.25 1606.78 C 1143.34 1610.03 1143.39 1613.04 1143.69 1616.29 L 1144.55 1616.99 L 1145.91 1615.39 C 1158.4 1656.97 1095.94 1650.04 1116.57 1612.42 z"/>
<path transform="translate(0,0)" fill="rgb(31,31,31)" d="M 268.759 1047.69 C 276.19 1057.28 308.257 1087.64 318.611 1097.99 L 318.638 1099.08 C 316.477 1103.46 317.277 1102.05 312.745 1105.1 C 308.973 1098.61 272.447 1065.88 263.416 1054.49 C 264.744 1051.44 266.444 1050.07 268.759 1047.69 z"/>
<path transform="translate(0,0)" fill="rgb(9,9,9)" d="M 598.019 1199.18 C 599.135 1196.15 633.115 1162.95 637.662 1159.3 L 640.688 1161.96 C 640.399 1164.19 640.411 1164.06 639.354 1166.06 L 639.957 1167.53 C 637.676 1171.16 607.05 1202.33 602.907 1205.26 C 600.652 1203.71 600.83 1204.11 598.062 1203.68 L 598.019 1199.18 z"/>
<path transform="translate(0,0)" fill="rgb(9,9,9)" d="M 1094.85 585.816 C 1102.41 590.501 1116.81 608.877 1124.5 614.128 C 1121.69 617.449 1121.57 617.86 1117.72 619.566 C 1112.84 616.035 1093.09 595.495 1088.1 590.463 L 1089.75 587.258 C 1092.01 585.849 1092.13 586.067 1094.85 585.816 z"/>
<path transform="translate(0,0)" fill="rgb(9,9,9)" d="M 613.122 1019.71 L 620.991 1026.65 C 618.288 1030.27 618.14 1030.43 614.376 1032.99 L 608.747 1026.87 C 609.455 1023.01 609.619 1024.9 607.815 1021.06 C 609.932 1019.83 610.459 1020.08 613.122 1019.71 z"/>
<path transform="translate(0,0)" fill="rgb(1,1,1)" d="M 248.682 829.214 C 243.338 837.93 238.982 843.773 228.085 843.18 C 217.019 842.578 210.27 834.548 211.745 823.627 C 212.506 817.847 215.707 812.669 220.538 809.405 C 231.964 801.788 242.419 810.582 248.094 820.563 C 290.414 821.36 334.992 820.691 377.466 820.69 L 623.354 820.673 C 667.475 820.666 718.157 819.343 761.535 820.964 C 773.111 820.48 784.857 820.717 796.454 820.804 C 809.105 832.576 821.827 845.179 833.87 857.572 C 861.171 885.666 890.268 912.761 917.113 941.251 C 992.911 941.245 1070.17 940.44 1145.85 941.401 C 1148.98 927.937 1158.92 919.002 1173.22 922.53 C 1179.73 924.123 1185.27 928.392 1188.47 934.286 C 1200.79 957.454 1164.7 985.712 1145.96 950.755 L 1145.34 949.628 C 1069.49 949.733 989.078 948.33 913.594 949.812 L 832.078 868.465 C 819.626 856.011 804.738 840.185 792.019 828.542 C 787.202 829.649 757.12 829.259 750.428 829.255 L 651.845 829.182 L 248.682 829.214 z"/>
<path transform="translate(0,0)" fill="rgb(31,31,31)" d="M 248.682 829.214 C 243.338 837.93 238.982 843.773 228.085 843.18 C 217.019 842.578 210.27 834.548 211.745 823.627 C 212.506 817.847 215.707 812.669 220.538 809.405 C 231.964 801.788 242.419 810.582 248.094 820.563 C 290.414 821.36 334.992 820.691 377.466 820.69 L 623.354 820.673 C 667.475 820.666 718.157 819.343 761.535 820.964 C 751.432 822.467 736.729 821.705 726.21 821.698 L 660.401 821.635 C 619.522 821.599 254.229 819.894 248.997 823.303 L 248.912 825.268 C 254.317 829.905 296.016 827.97 305.771 827.965 L 399.42 827.992 L 690.633 828.039 L 757.98 827.924 C 763.876 827.904 787.65 827.465 792.019 828.542 C 787.202 829.649 757.12 829.259 750.428 829.255 L 651.845 829.182 L 248.682 829.214 z"/>
<path transform="translate(0,0)" fill="rgb(255,255,255)" d="M 1163.98 930.685 C 1171.29 928.431 1179.07 932.347 1181.62 939.559 C 1184.17 946.772 1180.57 954.71 1173.47 957.547 C 1168.61 959.487 1163.08 958.611 1159.06 955.265 C 1155.04 951.918 1153.17 946.639 1154.2 941.51 C 1155.23 936.381 1158.98 932.226 1163.98 930.685 z"/>
<path transform="translate(0,0)" fill="rgb(1,1,1)" d="M 296.613 966.168 C 291.601 977.454 281.835 990.155 268.414 985.448 C 238.402 974.921 249.319 930.911 282.869 941.919 C 288.884 943.893 293.678 952.971 295.939 957.992 L 625.356 957.872 C 633.391 966.094 641.5 974.244 649.681 982.321 C 705.328 981.247 762.766 982.604 818.712 982.05 L 863.194 1026.52 L 1115.27 1026.55 C 1152.35 1026.54 1200.04 1025.05 1235.95 1026.87 C 1240.77 1026.67 1245.6 1026.5 1250.43 1026.36 C 1255.86 1015.72 1265.37 1007.15 1277.38 1014.69 C 1282.31 1017.82 1285.66 1022.91 1286.6 1028.67 C 1288.48 1040.31 1280.92 1047.97 1269.49 1048.69 C 1258.94 1049.35 1255.02 1042.99 1250.26 1034.79 L 958.955 1034.82 C 943.54 1034.83 869.172 1036.97 858.644 1034.28 L 814.064 989.826 C 758.236 990.528 700.998 989.899 645.028 989.87 C 637.099 982.071 629.32 974.12 621.696 966.022 C 514.954 967.788 403.768 966.185 296.613 966.168 z"/>
<path transform="translate(0,0)" fill="rgb(31,31,31)" d="M 1250.43 1026.36 C 1255.86 1015.72 1265.37 1007.15 1277.38 1014.69 C 1282.31 1017.82 1285.66 1022.91 1286.6 1028.67 C 1288.48 1040.31 1280.92 1047.97 1269.49 1048.69 C 1258.94 1049.35 1255.02 1042.99 1250.26 1034.79 L 958.955 1034.82 C 943.54 1034.83 869.172 1036.97 858.644 1034.28 C 863.79 1033.32 880.192 1033.61 886.151 1033.62 L 935.66 1033.69 C 1011.12 1033.79 1167.51 1034.09 1249.46 1033.04 C 1250.3 1033.03 1250.76 1031.35 1251.21 1030.32 L 1250.35 1029.06 C 1246.08 1027.21 1240.76 1027.51 1235.95 1026.87 C 1240.77 1026.67 1245.6 1026.5 1250.43 1026.36 z"/>
<path transform="translate(0,0)" fill="rgb(255,255,255)" d="M 271.498 948.663 C 279.142 947.829 286.068 953.213 287.146 960.827 C 288.224 968.44 283.065 975.535 275.49 976.857 C 270.369 977.751 265.168 975.784 261.92 971.726 C 258.672 967.667 257.892 962.161 259.886 957.361 C 261.879 952.56 266.33 949.226 271.498 948.663 z"/>
<path transform="translate(0,0)" fill="rgb(1,1,1)" d="M 495.044 1029.94 L 561.273 1029.91 C 578.717 1046.51 595.211 1064.25 612.442 1080.67 L 845.344 1080.55 C 880.221 1080.55 925.051 1081.78 959.087 1080.21 C 967.45 1088.37 975.728 1096.61 983.917 1104.95 L 1169.41 1104.87 C 1176.66 1081.05 1204.83 1081.91 1212.21 1098.52 C 1214.89 1104.7 1214.83 1111.73 1212.05 1117.86 C 1209.19 1124.07 1203.91 1128.83 1197.44 1131.04 C 1182.97 1135.85 1173.98 1124.86 1168.52 1113.16 L 979.869 1113.15 C 971.83 1105.18 962.711 1095.74 954.467 1088.17 C 925.385 1088.97 894.29 1088.42 864.972 1088.42 L 704.786 1088.41 L 642.358 1088.42 C 632.309 1088.42 618.021 1087.97 608.371 1088.69 L 557.945 1038.21 L 498.922 1038.23 L 483.648 1053.67 C 480.215 1054.6 454.431 1054.3 449.372 1054.3 L 367.83 1054.16 C 362.648 1063.22 358.168 1068.7 346.714 1067.76 C 335.321 1066.81 329.849 1057.44 331.865 1046.61 C 333.642 1037.06 342.858 1028.75 353.026 1031.5 C 362.384 1034.04 362.994 1038.31 367.609 1045.53 L 479.052 1045.75 C 484.968 1040.3 489.522 1035.8 495.044 1029.94 z"/>
<path transform="translate(0,0)" fill="rgb(31,31,31)" d="M 367.83 1054.16 C 362.648 1063.22 358.168 1068.7 346.714 1067.76 C 335.321 1066.81 329.849 1057.44 331.865 1046.61 C 333.642 1037.06 342.858 1028.75 353.026 1031.5 C 362.384 1034.04 362.994 1038.31 367.609 1045.53 C 368.179 1049.38 367.58 1049.97 369.732 1052.37 C 378.664 1053.68 393.049 1053.18 402.592 1053.17 L 458.168 1053.1 C 463.352 1053.1 479.301 1052.83 483.648 1053.67 C 480.215 1054.6 454.431 1054.3 449.372 1054.3 L 367.83 1054.16 z"/>
<path transform="translate(0,0)" fill="rgb(255,255,255)" d="M 1189.9 1094.88 C 1197.74 1093.85 1204.92 1099.39 1205.91 1107.23 C 1206.89 1115.07 1201.31 1122.22 1193.46 1123.16 C 1185.68 1124.09 1178.61 1118.57 1177.63 1110.79 C 1176.65 1103.02 1182.13 1095.91 1189.9 1094.88 z"/>
<path transform="translate(0,0)" fill="rgb(1,1,1)" d="M 770.963 344.791 L 616.638 344.815 C 607.518 344.812 561.551 344.253 556.023 345.45 C 555.63 346.614 555.216 347.77 554.781 348.918 C 548.005 366.754 519.904 370.69 512.924 349.218 C 502.492 317.125 548.147 305.51 555.473 336.519 C 628.119 337.612 702.108 335.234 774.648 336.798 L 795.788 357.242 L 903.05 357.217 C 908.359 352.745 916.5 344.121 921.657 338.983 C 948.546 339.192 975.436 339.127 1002.32 338.788 C 1010.72 346.745 1035.81 373.666 1043.07 378.774 C 1045.85 382.842 1044.68 446.903 1044.67 455.683 L 1044.55 603.291 C 1049.02 607.891 1056.51 617.83 1062.74 616.794 C 1081.41 613.69 1096.96 636.264 1080.83 649.019 C 1076.55 652.358 1071.09 653.8 1065.72 653.009 C 1051.61 650.97 1049.42 638.397 1052.51 626.601 L 1052.91 625.02 L 1053.15 624.074 C 1047.66 618.4 1042.03 612.375 1036.13 607.164 L 1036.28 578.699 C 1035.35 559.787 1036.17 532.216 1036.17 512.647 L 1036.28 384.61 L 998.768 347.18 C 974.98 347.76 949.687 347.409 925.784 347.435 L 908.328 364.804 C 869.064 364.479 829.798 364.498 790.534 364.863 C 784.309 358.198 777.373 351.351 770.963 344.791 z"/>
<path transform="translate(0,0)" fill="url(#Gradient6)" d="M 1043.07 378.774 C 1045.85 382.842 1044.68 446.903 1044.67 455.683 L 1044.55 603.291 C 1049.02 607.891 1056.51 617.83 1062.74 616.794 C 1081.41 613.69 1096.96 636.264 1080.83 649.019 C 1076.55 652.358 1071.09 653.8 1065.72 653.009 C 1051.61 650.97 1049.42 638.397 1052.51 626.601 L 1052.91 625.02 L 1053.15 624.074 C 1047.66 618.4 1042.03 612.375 1036.13 607.164 L 1036.28 578.699 C 1037.58 575.563 1037.07 566.516 1037.1 562.714 C 1037.48 504.021 1038.61 445.345 1038.87 386.659 C 1038.88 383.506 1041.12 380.988 1043.07 378.774 z"/>
<path transform="translate(0,0)" fill="rgb(255,255,255)" d="M 529.352 327.357 C 536.942 325.07 544.943 329.395 547.188 336.997 C 549.434 344.599 545.066 352.577 537.452 354.781 C 529.896 356.968 521.992 352.641 519.764 345.097 C 517.536 337.553 521.82 329.626 529.352 327.357 z"/>
<path transform="translate(0,0)" fill="rgb(1,1,1)" d="M 782.201 1384.38 C 799.966 1401.68 819.259 1422.54 837.025 1438.83 L 961.816 1438.83 C 966.382 1425.21 976.503 1416.37 991.353 1421.78 C 997.52 1424 1002.45 1428.74 1004.93 1434.81 C 1012.15 1452.61 999.46 1462.93 983.32 1466.23 C 970.756 1462.6 966.18 1460.12 961.594 1447.01 L 878.628 1447.08 C 864.439 1447.1 846.733 1446.66 832.753 1447.33 C 820.562 1433.68 791.495 1405.04 777.687 1392.15 L 519.432 1392.39 L 430.699 1392.37 C 416.31 1392.37 397.274 1392.84 383.131 1392.07 C 361.475 1413.93 333.147 1444.2 310.969 1464.22 L 214.346 1464.33 C 204.271 1464.33 175.171 1464.95 166.27 1463.82 C 165.892 1462.09 165.898 1461.53 165.762 1459.76 C 169.626 1456.19 185.45 1457.97 192.216 1456.99 C 229.646 1455.91 268.967 1457.96 306.058 1456.65 C 329.025 1433.91 355.59 1405.65 378.825 1384.07 C 422.399 1385.05 467.864 1384.38 511.635 1384.38 L 782.201 1384.38 z"/>
<path transform="translate(0,0)" fill="rgb(255,255,255)" d="M 981.905 1428.81 C 989.647 1427.64 996.887 1432.92 998.139 1440.64 C 999.391 1448.37 994.188 1455.67 986.473 1457 C 981.409 1457.88 976.266 1455.97 973.004 1451.99 C 969.742 1448.02 968.864 1442.61 970.706 1437.81 C 972.548 1433.01 976.824 1429.57 981.905 1428.81 z"/>
<path transform="translate(0,0)" fill="rgb(1,1,1)" d="M 1039.11 1298.1 L 1041.22 1298.81 L 1041.43 1301.9 C 1047.27 1300.71 1043.5 1296.9 1049.07 1299.33 C 1047.85 1300.62 1044.95 1303.52 1044.88 1305.05 C 1044.06 1324.33 1044.59 1347.52 1044.63 1366.48 L 1044.79 1526.71 C 1030.71 1540.68 1016.72 1554.76 1002.84 1568.94 L 921.698 1568.92 C 916.016 1563.02 910.273 1557.18 904.47 1551.4 L 794.696 1551.31 C 788.324 1557.48 781.703 1564.55 775.464 1570.95 C 702.862 1572.09 628.569 1570.75 555.7 1571.19 C 552.729 1583.08 543.192 1591 530.626 1589.35 C 524.644 1588.62 519.241 1585.42 515.72 1580.52 C 509.912 1572.3 511.159 1565 512.95 1556.04 C 517.114 1550.54 520.818 1546.98 527.771 1545.15 C 533.667 1543.54 539.965 1544.41 545.196 1547.57 C 551.679 1551.55 553.802 1555.74 555.676 1562.74 C 626.676 1563.75 700.313 1562.85 771.477 1562.78 C 777.471 1555.85 784.304 1549.28 790.814 1542.79 C 826.63 1544.19 871.896 1543.17 908.168 1542.91 C 914.275 1549 920.418 1555.06 926.595 1561.07 C 950.369 1560.94 974.143 1560.95 997.916 1561.09 C 1010.37 1549.7 1024.12 1535.25 1036.19 1523.17 L 1036.21 1310.04 C 1036.26 1304.42 1035.45 1301.7 1039.11 1298.1 z"/>
<path transform="translate(0,0)" fill="rgb(255,255,255)" d="M 530.964 1552.77 C 536.075 1551.85 541.286 1553.76 544.585 1557.77 C 547.885 1561.78 548.757 1567.27 546.865 1572.1 C 544.974 1576.94 540.615 1580.38 535.469 1581.08 C 527.741 1582.15 520.579 1576.84 519.353 1569.13 C 518.127 1561.43 523.287 1554.16 530.964 1552.77 z"/>
<path transform="translate(0,0)" fill="rgb(1,1,1)" d="M 717.701 1503.99 C 722.559 1493.77 731.566 1485.52 743.239 1491.59 C 748.132 1494.18 751.743 1498.66 753.22 1504 C 758.845 1524.1 730.824 1538.93 717.678 1512.49 C 645.83 1510.95 567.496 1512.37 495.357 1512.32 L 433.503 1574.12 C 344.747 1574.96 255.267 1573.15 166.571 1574.4 C 166.389 1575 166.208 1575.59 166.026 1576.18 C 163.878 1582.79 159.071 1588.2 152.763 1591.12 C 147.905 1593.31 142.183 1593 137.299 1591.05 C 131.419 1588.66 126.716 1584.05 124.209 1578.22 C 111.045 1547.59 158.371 1532.48 166.632 1565.52 C 253.075 1567.11 342.924 1565.65 429.735 1565.87 L 491.385 1504.16 L 502.431 1504.18 C 573.631 1502.92 646.326 1504.43 717.701 1503.99 z"/>
<path transform="translate(0,0)" fill="rgb(31,31,31)" d="M 717.701 1503.99 C 722.559 1493.77 731.566 1485.52 743.239 1491.59 C 748.132 1494.18 751.743 1498.66 753.22 1504 C 758.845 1524.1 730.824 1538.93 717.678 1512.49 C 718.041 1509.29 718.223 1509.29 717.441 1506.24 C 710.658 1502.37 579.181 1506.93 561.47 1505.13 C 547.971 1503.76 517.674 1507.42 502.431 1504.18 C 573.631 1502.92 646.326 1504.43 717.701 1503.99 z"/>
<path transform="translate(0,0)" fill="rgb(255,255,255)" d="M 140.914 1555.7 C 145.92 1554.41 151.228 1555.93 154.797 1559.67 C 158.365 1563.41 159.638 1568.78 158.126 1573.72 C 156.614 1578.66 152.552 1582.4 147.503 1583.5 C 139.889 1585.16 132.35 1580.42 130.554 1572.83 C 128.757 1565.25 133.366 1557.63 140.914 1555.7 z"/>
<path transform="translate(0,0)" fill="rgb(1,1,1)" d="M 467.08 1457.15 C 512.353 1458.29 562.513 1457.29 608.136 1457.29 C 663.117 1457.29 720.764 1458.16 775.531 1457.08 C 789.878 1471.43 804.299 1485.71 818.794 1499.91 C 826.675 1498.54 850.749 1499.13 860.18 1499.14 L 944.289 1499.27 C 947.118 1493.56 951.092 1487.14 957.575 1485.51 C 967.461 1483.02 977.994 1487.88 980.072 1498.1 C 981.274 1503.88 979.981 1509.89 976.512 1514.67 C 965.665 1529.38 951.621 1519.66 943.953 1507.63 C 913.63 1505.61 876.761 1508.35 845.844 1507.4 C 839.078 1507.19 817.731 1508 812.703 1506.69 C 802.391 1495.14 782.555 1475.93 771.175 1465.24 L 471.585 1465.2 C 458.925 1475.94 446.574 1490.91 434.658 1501.53 C 414.808 1519.21 430.192 1517.21 426.175 1533.33 C 421.956 1550.26 392.123 1555.86 383.57 1535.41 C 380.974 1529.16 381.094 1522.11 383.9 1515.95 C 388.302 1506.45 402.25 1500.18 412.372 1505.26 C 414.547 1506.35 414.254 1506.68 416.922 1506.73 C 430.658 1494.93 453.531 1470.6 467.08 1457.15 z"/>
<path transform="translate(0,0)" fill="rgb(31,31,31)" d="M 944.289 1499.27 C 947.118 1493.56 951.092 1487.14 957.575 1485.51 C 967.461 1483.02 977.994 1487.88 980.072 1498.1 C 981.274 1503.88 979.981 1509.89 976.512 1514.67 C 965.665 1529.38 951.621 1519.66 943.953 1507.63 C 913.63 1505.61 876.761 1508.35 845.844 1507.4 C 839.078 1507.19 817.731 1508 812.703 1506.69 C 826.392 1505.72 844.283 1506.2 858.262 1506.2 C 886.352 1506.36 914.442 1506.23 942.529 1505.78 L 943.543 1504.34 L 942.66 1502.29 C 933.422 1497.06 840 1502 819.637 1500 L 818.794 1499.91 C 826.675 1498.54 850.749 1499.13 860.18 1499.14 L 944.289 1499.27 z"/>
<path transform="translate(0,0)" fill="rgb(255,255,255)" d="M 399.784 1512.56 C 407.275 1510.15 415.301 1514.28 417.7 1521.77 C 420.1 1529.26 415.963 1537.28 408.465 1539.67 C 400.983 1542.06 392.984 1537.93 390.589 1530.45 C 388.195 1522.97 392.309 1514.97 399.784 1512.56 z"/>
<path transform="translate(0,0)" fill="rgb(1,1,1)" d="M 420.923 616.056 C 402.796 651.761 367.968 630.926 376.305 605.453 C 378.449 599.05 383.149 593.82 389.288 591.008 C 404.098 584.341 414.736 595.011 420.193 607.934 L 829.478 607.895 C 851.494 627.403 882.444 660.103 903.86 681.67 C 935.866 713.902 971.575 747.928 1002.47 780.644 L 1000.83 781.044 C 994.263 775.181 980.47 760.559 974.6 756.762 L 973.02 756.969 C 974.656 763.636 997.298 779.706 999.098 786.421 L 997.85 787.684 C 979.329 770.719 957.323 747.406 939.284 729.364 L 826.186 616.21 C 691.371 615.178 555.643 617.548 420.923 616.056 z"/>
<path transform="translate(0,0)" fill="rgb(255,255,255)" d="M 393.081 598.637 C 398.051 597.092 403.467 598.389 407.198 602.015 C 410.93 605.642 412.38 611.019 410.977 616.031 C 409.575 621.042 405.545 624.885 400.473 626.049 C 393.03 627.756 385.569 623.274 383.581 615.901 C 381.593 608.528 385.789 600.903 393.081 598.637 z"/>
<path transform="translate(0,0)" fill="rgb(9,9,9)" d="M 908.506 693.492 L 909.558 692.924 C 915.617 695.211 932.492 715.398 940.462 720.372 C 940.45 722.901 940.739 721.772 939.775 723.8 C 935.264 722.55 911.652 698.043 908.506 693.492 z"/>
<path transform="translate(0,0)" fill="rgb(9,9,9)" d="M 853.664 639.558 C 861.016 640.922 873.912 651.708 875.288 659.436 L 876.077 659.766 L 876.052 660.64 C 872.732 659.261 857.291 643.091 853.664 639.558 z"/>
<path transform="translate(0,0)" fill="rgb(9,9,9)" d="M 889.297 674.775 C 899.104 675.883 896.668 681.524 905.271 685.291 C 905.784 688.43 906.23 687.294 905.029 689.377 C 900.818 688.117 892.634 678.378 889.297 674.775 z"/>
<path transform="translate(0,0)" fill="rgb(9,9,9)" d="M 945.306 728.895 C 950.005 731.311 950.772 730.578 952.169 735.426 C 948.537 736.242 946.041 731.922 945.306 728.895 z"/>
<path transform="translate(0,0)" fill="rgb(1,1,1)" d="M 971.266 408.763 L 969.992 408.313 L 968.152 407.627 C 954.296 402.612 951.051 391.085 955.007 377.789 C 961.308 356.614 992.039 361.9 997.806 380.987 C 1002.08 395.124 992.578 404.803 979.911 408.688 C 978.722 477.975 979.779 550.885 979.757 620.375 C 995.094 634.102 1017.14 657.564 1032.22 672.643 C 1044.48 672.748 1057.36 673.115 1069.54 672.343 C 1092.22 696.612 1120.88 723.958 1144.66 747.855 C 1158.84 747.387 1175.05 747.75 1189.43 747.688 C 1200.2 758.636 1211.1 769.45 1222.14 780.13 C 1221.95 787.423 1220.57 804.805 1223.94 809.996 C 1222.96 811.033 1219.46 815.236 1218.72 815.761 C 1211.24 808.971 1214.07 795.023 1214.3 785.055 C 1206.89 776.633 1193.96 764.449 1185.71 756.158 C 1170.88 756.018 1155.7 756.275 1140.84 756.365 C 1124.63 738.909 1105.9 721.889 1089.28 704.672 C 1082.46 697.607 1072.39 688.456 1066.55 680.92 L 1028.62 681.098 C 1013.52 666.075 984.165 638.551 971.13 623.21 L 971.266 408.763 z"/>
<path transform="translate(0,0)" fill="rgb(255,255,255)" d="M 972.925 372.566 C 980.642 371.054 988.125 376.078 989.648 383.792 C 991.17 391.507 986.157 398.997 978.444 400.531 C 970.716 402.067 963.209 397.041 961.683 389.312 C 960.158 381.582 965.193 374.081 972.925 372.566 z"/>
<path transform="translate(0,0)" fill="rgb(1,1,1)" d="M 241.888 438.635 C 237.947 445.76 235.027 450.988 227.472 455.012 C 216.179 461.026 203.38 455.129 198.148 444.079 C 195.239 437.836 195.108 430.653 197.789 424.309 C 205.618 405.731 232.645 407.005 240.665 430.461 C 272.132 431.148 308.835 430.998 340.271 430.374 C 366.746 455.475 391.427 482.783 418.193 507.59 C 418.954 508.295 424.949 508.383 426.256 508.426 C 444.986 507.021 474.586 508.133 494.375 508.142 L 619.459 508.178 C 622.194 502.599 625.793 496.724 631.922 494.73 C 641.395 491.649 652.367 496.154 655.084 505.862 C 656.463 510.972 655.759 516.421 653.127 521.014 C 643.215 538.563 627.678 530.138 619.311 515.973 L 492.073 515.996 C 469.145 515.998 444.205 516.471 421.412 515.795 L 413.349 515.785 C 389.478 491.883 358.877 463.056 336.695 438.68 C 308.505 439.235 269.773 439.733 241.888 438.635 z"/>
<path transform="translate(0,0)" fill="rgb(31,31,31)" d="M 619.459 508.178 C 622.194 502.599 625.793 496.724 631.922 494.73 C 641.395 491.649 652.367 496.154 655.084 505.862 C 656.463 510.972 655.759 516.421 653.127 521.014 C 643.215 538.563 627.678 530.138 619.311 515.973 L 492.073 515.996 C 469.145 515.998 444.205 516.471 421.412 515.795 C 427.294 514.086 454.232 514.796 464.351 514.729 C 514.608 514.398 566.613 515.475 617.002 514.332 C 617.607 513.858 618.212 513.384 618.817 512.91 L 618.777 511.039 C 614.943 508.258 585.997 509.31 578.524 509.309 L 462.972 509.323 C 457.687 509.328 429.137 509.951 426.256 508.426 C 444.986 507.021 474.586 508.133 494.375 508.142 L 619.459 508.178 z"/>
<path transform="translate(0,0)" fill="rgb(255,255,255)" d="M 214.486 420.59 C 222.066 418.672 229.767 423.251 231.704 430.825 C 233.641 438.4 229.082 446.113 221.513 448.069 C 213.916 450.032 206.168 445.453 204.225 437.852 C 202.281 430.25 206.879 422.514 214.486 420.59 z"/>
<path transform="translate(0,0)" fill="rgb(9,9,9)" d="M 1187.97 1292.45 C 1189.42 1294.44 1190.68 1297.12 1192.18 1298.56 C 1201.37 1298.88 1234.87 1297.85 1240.38 1299.32 C 1232.57 1300.91 1201.89 1300.09 1193 1299.97 C 1177.82 1314.03 1160.1 1332.03 1145.56 1347 C 1143.27 1350.91 1143.72 1476.59 1144.7 1488.65 C 1105.94 1528.53 1064.48 1567.42 1026.11 1607.58 C 985.717 1607.05 935.279 1606.42 895.321 1607.93 C 890.923 1621.46 885.012 1623.47 872.701 1626.9 C 870.848 1626.39 869.01 1625.82 867.193 1625.2 C 853.987 1620.62 846.013 1608.46 852.05 1594.89 C 854.638 1589.05 859.473 1584.51 865.459 1582.29 C 880.303 1576.89 890.426 1585.53 895.442 1598.99 L 1021.93 1599.11 C 1034.46 1587.81 1051.09 1570.1 1063.4 1557.79 L 1136.8 1484.16 C 1136.54 1454.09 1136.45 1424.02 1136.52 1393.95 C 1136.5 1378.49 1136.28 1362.06 1136.73 1346.54 C 1136.83 1343.2 1137.68 1343.04 1139.73 1340.44 C 1154.28 1327.34 1173.82 1306.75 1187.97 1292.45 z"/>
<path transform="translate(0,0)" fill="rgb(255,255,255)" d="M 869.493 1589.51 C 877.205 1587.69 884.927 1592.49 886.701 1600.21 C 888.476 1607.94 883.624 1615.63 875.889 1617.35 C 868.226 1619.06 860.621 1614.26 858.863 1606.61 C 857.105 1598.96 861.853 1591.32 869.493 1589.51 z"/>
<path transform="translate(0,0)" fill="rgb(1,1,1)" d="M 607.666 1114.71 C 641.049 1115.32 919.044 1112.97 926.041 1116.25 C 932.036 1123.87 952.321 1143 959.964 1150.5 L 1055.92 1150.47 C 1061.81 1150.48 1091.81 1150.98 1096.27 1150.12 C 1100.22 1144.15 1099.4 1137.24 1109.08 1132.81 C 1139.69 1118.81 1157.05 1163.02 1127.27 1174.16 C 1121.68 1176.3 1115.43 1175.94 1110.13 1173.15 C 1103.3 1169.55 1100.9 1165.22 1097.43 1158.8 L 956.005 1158.92 C 946.447 1149.44 928.742 1132.78 920.561 1123.13 L 706.95 1123.15 L 644.876 1123.22 C 633.247 1123.22 618.39 1123.64 607.093 1122.62 C 604.814 1121.48 604.905 1121.11 603.457 1118.91 L 604.095 1116.52 L 607.666 1114.71 z"/>
<path transform="translate(0,0)" fill="rgb(255,255,255)" d="M 1114.56 1139.67 C 1121.77 1136.71 1130.02 1140.12 1133.03 1147.31 C 1136.05 1154.49 1132.7 1162.77 1125.53 1165.83 C 1118.29 1168.93 1109.92 1165.54 1106.87 1158.28 C 1103.83 1151.01 1107.28 1142.66 1114.56 1139.67 z"/>
<path transform="translate(0,0)" fill="rgb(1,1,1)" d="M 832.338 259.057 L 1049.34 258.941 C 1052.41 261.596 1055.59 264.852 1058.52 267.716 C 1055.32 268.648 1055.62 267.836 1051.51 265.639 L 1051.2 266.696 C 1057.58 274.501 1088.42 302.229 1089.92 307.464 L 1088.59 310.019 C 1074.13 295.808 1059.83 281.435 1045.7 266.903 L 837.323 266.928 C 830.054 273.181 821.402 282.567 814.558 289.593 C 770.245 288.796 723.437 289.439 678.977 289.572 C 670.867 322.498 624.535 309.004 635.262 278.935 C 637.555 272.583 642.368 267.458 648.565 264.773 C 662.797 258.703 673.521 268.534 679.049 280.972 C 722.724 281.482 766.645 280.705 810.401 281.185 C 817.766 273.862 825.079 266.485 832.338 259.057 z"/>
<path transform="translate(0,0)" fill="rgb(255,255,255)" d="M 651.751 272.569 C 656.613 270.95 661.97 272.068 665.779 275.496 C 669.588 278.923 671.262 284.133 670.164 289.138 C 669.065 294.143 665.363 298.172 660.468 299.69 C 653.009 302.002 645.079 297.877 642.69 290.443 C 640.3 283.008 644.342 275.036 651.751 272.569 z"/>
<path transform="translate(0,0)" fill="rgb(1,1,1)" d="M 679.327 1626.69 C 676.693 1632.2 673.943 1637.24 668.734 1640.74 C 659.299 1646.78 642.304 1644.83 636.548 1634.1 C 625.656 1613.8 650.183 1587.76 669.584 1603.11 C 674.865 1607.28 676.858 1611.56 679.08 1618.02 L 813.767 1618.07 C 819.987 1624.76 829.944 1634.77 836.627 1640.74 C 851.282 1640.73 866.838 1640.47 881.402 1641.04 C 888.52 1642.84 909.459 1642.24 917.782 1642.22 L 1003.16 1642.03 C 1017 1642 1031.07 1641.56 1044.84 1642.75 C 1046.53 1642.89 1050.87 1645.81 1052.1 1647 C 1047.34 1650.43 982.04 1649.12 971.109 1649.12 L 832.51 1649.01 C 826.274 1643.8 815.453 1632.38 810.07 1626.36 C 767.479 1627.31 722.067 1626.62 679.327 1626.69 z"/>
<path transform="translate(0,0)" fill="rgb(255,255,255)" d="M 654.351 1607.72 C 662.066 1606.66 669.196 1612.01 670.326 1619.72 C 671.457 1627.42 666.167 1634.6 658.472 1635.8 C 650.678 1637.02 643.389 1631.64 642.244 1623.84 C 641.098 1616.03 646.537 1608.79 654.351 1607.72 z"/>
<path transform="translate(0,0)" fill="rgb(1,1,1)" d="M 365.716 1486.46 L 366.21 1488.43 C 363.512 1492.3 359.753 1494.39 358.899 1498.64 L 359.96 1499.01 C 363.229 1496.85 371.952 1488.28 374.602 1489.21 C 366.591 1498.63 348.578 1515.6 339.132 1525.13 C 267.805 1525.49 194.551 1525.82 123.297 1525.01 C 107.228 1539.3 90.942 1557.05 76.0148 1572.63 C 70.4927 1578.39 82.0374 1591.62 71.3458 1602.83 C 61.3877 1613.27 47.8003 1612.8 37.4029 1604.28 C 28.1225 1596.68 30.4447 1577.09 39.4053 1570.5 C 50.8666 1560.56 55.9864 1567.99 66.2794 1568.38 C 80.8371 1556.24 104.363 1531.21 118.785 1516.69 C 188.974 1518.2 264.17 1516.84 334.763 1516.84 C 343.634 1509.21 356.664 1495.25 365.716 1486.46 z"/>
<path transform="translate(0,0)" fill="rgb(255,255,255)" d="M 49.006 1574.65 C 56.4334 1571.99 64.6054 1575.88 67.2359 1583.31 C 69.8664 1590.75 65.9541 1598.91 58.5085 1601.51 C 51.0993 1604.11 42.9895 1600.22 40.3719 1592.82 C 37.7543 1585.42 41.6151 1577.29 49.006 1574.65 z"/>
<path transform="translate(0,0)" fill="rgb(1,1,1)" d="M 753.578 546.895 C 756.423 541.417 760.146 535.109 766.348 533.294 C 776.203 530.41 786.946 535.806 789.347 545.734 C 790.548 550.9 789.631 556.332 786.801 560.817 C 776.72 576.814 761.131 568.435 753.174 555.021 L 464.213 554.973 L 394.967 555.085 C 389.39 555.099 366.232 555.487 361.891 554.44 L 357.985 550.661 C 365.628 547.112 360.374 549.91 362.234 542.928 L 367.898 547.559 C 375.815 546.229 398.389 546.782 407.453 546.806 L 480.402 546.945 L 753.578 546.895 z"/>
<path transform="translate(0,0)" fill="rgb(31,31,31)" d="M 753.578 546.895 C 756.423 541.417 760.146 535.109 766.348 533.294 C 776.203 530.41 786.946 535.806 789.347 545.734 C 790.548 550.9 789.631 556.332 786.801 560.817 C 776.72 576.814 761.131 568.435 753.174 555.021 L 464.213 554.973 L 394.967 555.085 C 389.39 555.099 366.232 555.487 361.891 554.44 C 366.478 553.33 385.671 553.628 391.204 553.628 L 450.562 553.745 L 680.981 553.722 C 700.32 553.721 719.657 553.778 738.996 553.818 C 743.589 553.828 749.803 554.711 752.228 550.155 C 747.412 546.706 653.633 548 641.527 547.999 L 440.734 548.074 L 390.794 548.107 C 385.329 548.111 372.805 548.688 367.898 547.559 C 375.815 546.229 398.389 546.782 407.453 546.806 L 480.402 546.945 L 753.578 546.895 z"/>
<path transform="translate(0,0)" fill="rgb(1,1,1)" d="M 581.01 378.592 C 589.42 363.911 596.477 363.606 612.015 365.227 C 620.375 371.119 621.615 372.404 624.968 381.971 C 667.652 382.523 711.591 382.022 754.366 382.02 C 764.511 392.511 775.429 403.055 785.82 413.365 C 818.588 412.311 853.229 413.684 886.174 413.066 C 897.337 412.856 898.371 411.523 905.27 418.408 C 901.452 419.573 900.331 419.558 897.88 422.725 C 893.765 419.647 862.489 420.893 855.936 420.906 L 781.339 421.144 L 750.448 390.182 C 717.869 390.516 685.211 389.981 652.625 390.195 C 643.57 390.255 634.708 390.017 625.672 390.747 C 620.403 401.212 614.659 409.954 601.136 409.28 C 595.585 409.005 590.374 406.527 586.657 402.397 C 579.768 394.701 580.45 387.879 581.01 378.592 z"/>
<path transform="translate(0,0)" fill="rgb(255,255,255)" d="M 599.627 372.687 C 604.652 371.562 609.894 373.23 613.345 377.052 C 616.795 380.875 617.92 386.259 616.289 391.143 C 614.657 396.027 610.522 399.655 605.467 400.636 C 597.804 402.123 590.367 397.18 588.771 389.54 C 587.175 381.899 592.01 374.392 599.627 372.687 z"/>
<path transform="translate(0,0)" fill="rgb(9,9,9)" d="M 854.686 583.019 C 853.664 575.542 851.245 579.458 850.973 574.172 L 854.412 570.855 C 890.208 607.764 928.414 643.808 964.357 680.718 C 978.372 695.111 994.876 710.302 1008.19 724.89 C 1028.97 724.878 1050.1 725.073 1070.84 724.778 C 1092 746.356 1115.73 768.786 1136.17 790.644 C 1144.56 790.594 1153.57 790.711 1161.9 790.431 L 1183.32 811.84 C 1183.34 818.156 1183.84 830.47 1182.35 835.998 C 1180.8 829.06 1182.64 818.154 1181.2 812.933 C 1180.09 820.471 1183.24 838.546 1180.81 842.617 C 1179.1 841.427 1176.04 838.047 1175.46 837.734 C 1175.18 831.117 1175.4 823.2 1175.41 816.476 C 1169.87 810.478 1163.87 805.361 1158.57 799.003 L 1132.04 799.079 C 1112.41 777.817 1087.05 753.967 1066.39 733.071 C 1046.23 733.638 1024.55 733.482 1004.36 733.548 C 993.463 721.586 978.476 707.417 966.865 695.803 L 894.752 623.741 C 887.92 616.925 859.333 589.319 854.686 583.019 z"/>
<path transform="translate(0,0)" fill="rgb(1,1,1)" d="M 478.798 459.456 C 461.547 495.902 425.145 473.172 435.04 447.501 C 437.373 441.564 441.979 436.805 447.836 434.28 C 462.758 427.896 472.946 437.462 478.067 450.881 C 520.25 451.97 564.424 450.142 606.74 450.869 C 617.613 451.055 649.37 449.992 658.124 451.989 C 655.11 455.676 655.412 454.228 655.141 458.294 L 656.066 458.914 L 654.904 459.535 C 649.258 458.675 601.101 458.793 591.775 459.076 C 556.117 460.162 513.656 457.503 478.798 459.456 z"/>
<path transform="translate(0,0)" fill="rgb(255,255,255)" d="M 453.363 441.465 C 461.047 440.138 468.368 445.236 469.789 452.902 C 471.21 460.569 466.201 467.952 458.552 469.465 C 453.521 470.461 448.344 468.674 444.997 464.788 C 441.651 460.902 440.653 455.516 442.385 450.689 C 444.116 445.862 448.31 442.338 453.363 441.465 z"/>
<path transform="translate(0,0)" fill="url(#Gradient5)" d="M 1360.47 1152.79 L 1360.86 1151.35 C 1362.63 1145.01 1365.5 1138.76 1371.59 1135.42 C 1374.99 1133.56 1379 1133.38 1382.66 1134.51 C 1388.35 1136.27 1393.13 1140.7 1395.57 1146.08 C 1397.68 1150.72 1398.24 1156.47 1396.24 1161.24 C 1394.58 1165.18 1391.21 1167.84 1387.19 1169.14 C 1382.09 1170.79 1375.61 1168.52 1371.23 1170 C 1365.24 1172.03 1253.13 1286.6 1240.38 1299.32 C 1234.87 1297.85 1201.37 1298.88 1192.18 1298.56 C 1190.68 1297.12 1189.42 1294.44 1187.97 1292.45 C 1199.72 1290.95 1223.84 1291.66 1236.44 1291.73 C 1241.71 1284.57 1269.51 1257.59 1277.05 1250.12 C 1305.93 1221.52 1334.62 1192.06 1363.7 1163.74 L 1360.47 1152.79 z"/>
<path transform="translate(0,0)" fill="rgb(9,9,9)" d="M 997.85 787.684 L 999.098 786.421 C 997.298 779.706 974.656 763.636 973.02 756.969 L 974.6 756.762 C 980.47 760.559 994.263 775.181 1000.83 781.044 L 1002.47 780.644 C 1003.57 781.569 1005.6 783.299 1007.05 783.321 C 1029.5 783.672 1061.75 784.683 1083.31 783.409 L 1247.67 947.733 C 1245.46 948.49 1243.61 949.121 1241.35 949.753 L 1242.13 950.934 C 1243.3 952.711 1244.23 954.29 1245.31 956.115 C 1236.36 952.042 1096.39 808.871 1079.6 792.057 L 1002.57 792.381 L 997.85 787.684 z"/>
<path transform="translate(0,0)" fill="rgb(1,1,1)" d="M 895.338 308.585 C 883.573 342.99 843.271 324.314 851.283 298.595 C 853.271 292.198 857.824 286.912 863.858 284 C 879.141 276.628 889.965 286.356 895.455 300.117 L 983.801 300.078 C 996.733 300.072 1011.25 299.755 1024.18 300.543 C 1026.69 300.695 1026.83 301.492 1029.14 303.295 L 1024.88 305.312 C 1024.52 306.56 1024.16 307.809 1023.8 309.057 C 1019.56 308.003 991.552 308.372 985.315 308.376 L 895.338 308.585 z"/>
<path transform="translate(0,0)" fill="rgb(255,255,255)" d="M 869.636 290.523 C 874.686 289.377 879.961 291.047 883.431 294.89 C 886.901 298.734 888.026 304.151 886.373 309.058 C 884.72 313.965 880.546 317.597 875.458 318.557 C 867.787 320.004 860.371 315.041 858.784 307.398 C 857.197 299.755 862.024 292.25 869.636 290.523 z"/>
<path transform="translate(0,0)" fill="url(#Gradient4)" d="M 1254.82 635.154 C 1252.88 627.361 1245.73 625.229 1243.48 619.912 C 1251.1 616.016 1250.39 628.288 1261.03 629.968 C 1272.41 639.815 1288.61 656.932 1299.6 667.924 L 1370.19 738.546 C 1376.63 737.249 1384.84 736.433 1390.44 740.55 C 1409.44 754.497 1385.17 786.802 1367.02 768.724 C 1359.53 761.251 1360 754.288 1363.63 744.646 L 1284.57 665.592 C 1280.27 661.294 1256.51 638.385 1254.82 635.154 z"/>
<path transform="translate(0,0)" fill="url(#Gradient3)" d="M 1386.41 922.463 C 1383.63 910.885 1384.3 897.278 1398.91 895.071 C 1404.35 894.245 1409.89 895.675 1414.25 899.031 C 1429.05 910.469 1420.47 935.574 1392.6 929.301 L 1365.21 956.404 L 1286.39 956.251 C 1273.83 956.253 1257.6 956.71 1245.31 956.115 C 1244.23 954.29 1243.3 952.711 1242.13 950.934 L 1241.35 949.753 C 1243.61 949.121 1245.46 948.49 1247.67 947.733 C 1284.66 949 1323.96 947.554 1361.22 948.001 C 1369.51 939.61 1378.31 930.971 1386.41 922.463 z"/>
<path transform="translate(0,0)" fill="rgb(1,1,1)" d="M 846.585 486.87 C 832.128 479.657 825.369 472.625 829.664 455.611 C 832.894 442.813 846.207 438.267 857.777 442.448 C 864.066 444.749 869.142 449.52 871.827 455.656 C 878.044 469.936 868.389 481.583 854.923 485.892 C 854.529 512.861 855.806 544.449 854.412 570.855 L 850.973 574.172 C 851.245 579.458 853.664 575.542 854.686 583.019 C 851.947 580.782 848.965 577.661 846.391 575.136 C 846.619 545.715 846.684 516.292 846.585 486.87 z"/>
<path transform="translate(0,0)" fill="rgb(255,255,255)" d="M 846.415 449.675 C 853.779 447.405 861.61 451.412 864.077 458.713 C 866.543 466.013 862.747 473.949 855.516 476.61 C 850.662 478.397 845.222 477.407 841.308 474.027 C 837.394 470.646 835.624 465.407 836.686 460.346 C 837.747 455.284 841.473 451.198 846.415 449.675 z"/>
<path transform="translate(0,0)" fill="rgb(31,31,31)" d="M 658.124 451.989 C 665.699 461.584 697.918 492.214 708.22 502.411 C 715.883 501.267 727.802 501.769 735.798 501.708 C 752.74 501.579 769.859 502.008 786.808 501.813 C 792.428 489.862 803.853 483.331 814.845 490.166 C 838.297 504.748 806.914 546.628 786.553 509.975 C 764.623 510.005 727.085 511.245 706.418 509.76 C 705.376 510 704.887 509.778 703.723 509.619 C 697.371 504.201 655.854 463.519 654.904 459.535 L 656.066 458.914 L 655.141 458.294 C 655.412 454.228 655.11 455.676 658.124 451.989 z"/>
<path transform="translate(0,0)" fill="rgb(9,9,9)" d="M 658.124 451.989 C 665.699 461.584 697.918 492.214 708.22 502.411 L 710.186 502.613 C 722.559 503.789 781.394 500.578 786.385 505.05 L 786.535 507.013 C 786.017 507.528 785.498 508.042 784.98 508.556 C 769.474 510.059 718.449 506.71 706.418 509.76 C 705.376 510 704.887 509.778 703.723 509.619 C 697.371 504.201 655.854 463.519 654.904 459.535 L 656.066 458.914 L 655.141 458.294 C 655.412 454.228 655.11 455.676 658.124 451.989 z"/>
<path transform="translate(0,0)" fill="rgb(1,1,1)" d="M 1141.69 416.113 C 1142.46 417.077 1143.23 418.04 1144.01 419.004 C 1143.64 455.726 1145.57 525.174 1144.09 559.401 C 1160.43 575.402 1176.63 591.538 1192.7 607.806 L 1239.09 607.771 C 1244.35 612.848 1257.04 624.619 1261.03 629.968 C 1250.39 628.288 1251.1 616.016 1243.48 619.912 C 1245.73 625.229 1252.88 627.361 1254.82 635.154 C 1250.33 631.676 1239.73 620.516 1235.23 616.015 L 1188.6 616.068 C 1176.85 602.625 1150.19 577.356 1136.6 564.275 L 1136.76 472.026 C 1136.77 463.336 1138.15 426.195 1134.7 420.317 C 1135.9 419.224 1139.06 418.291 1141.69 416.113 z"/>
<path transform="translate(0,0)" fill="rgb(31,31,31)" d="M 1223.94 809.996 C 1228.13 811.81 1255.78 840.839 1260.64 845.834 C 1275.52 859.361 1289.16 874.404 1303.44 888.553 C 1307.56 892.63 1316.24 902.582 1322.32 901.096 C 1334.33 898.166 1343.77 905.251 1343.86 917.603 C 1343.89 922.953 1341.63 928.061 1337.66 931.644 C 1328.79 939.603 1317.44 937.056 1310.16 928.069 C 1303.66 920.04 1312.68 912.586 1308.01 905.745 C 1303.77 899.541 1295.26 893.876 1290.7 887.591 C 1282.9 880.885 1270.93 868.21 1263.36 860.656 C 1248.32 845.849 1233.44 830.883 1218.72 815.761 C 1219.46 815.236 1222.96 811.033 1223.94 809.996 z"/>
<path transform="translate(0,0)" fill="rgb(9,9,9)" d="M 1223.94 809.996 C 1228.13 811.81 1255.78 840.839 1260.64 845.834 L 1258.83 847.091 C 1253.93 843.845 1250.72 840.202 1246.23 836.484 C 1252.71 845.167 1255.85 849.545 1263.1 857.492 C 1271.26 866.448 1284.11 877.268 1291.53 885.999 L 1290.7 887.591 C 1282.9 880.885 1270.93 868.21 1263.36 860.656 C 1248.32 845.849 1233.44 830.883 1218.72 815.761 C 1219.46 815.236 1222.96 811.033 1223.94 809.996 z"/>
<path transform="translate(0,0)" fill="url(#Gradient2)" d="M 1149.08 370.141 C 1156.15 371.209 1166.85 385.243 1172.49 387.42 C 1172.74 385.773 1172.69 384.512 1173.54 383.084 C 1178.09 387.262 1182.55 391.535 1186.91 395.899 C 1186.44 415.771 1186.97 435.587 1186.65 455.362 C 1187.15 468.581 1186.74 484.712 1186.77 498.171 C 1213.87 514.937 1197.48 538.476 1179.28 534.593 C 1174.07 533.473 1169.55 530.269 1166.76 525.727 C 1159.44 513.829 1168.65 503.944 1178.72 498.253 C 1178.59 476.743 1177.7 448.475 1178.91 427.614 C 1178.28 419.429 1178.89 408.855 1178.51 400.105 C 1168.72 390.034 1158.53 380.605 1149.08 370.141 z"/>
<path transform="translate(0,0)" fill="rgb(9,9,9)" d="M 1149.08 370.141 C 1156.15 371.209 1166.85 385.243 1172.49 387.42 C 1172.74 385.773 1172.69 384.512 1173.54 383.084 C 1178.09 387.262 1182.55 391.535 1186.91 395.899 C 1186.44 415.771 1186.97 435.587 1186.65 455.362 C 1183.86 445.219 1186.89 411.98 1184.47 398.435 C 1182.66 396.312 1183.78 396.888 1180.98 396.665 C 1179.9 398.027 1180.92 420.55 1178.91 427.614 C 1178.28 419.429 1178.89 408.855 1178.51 400.105 C 1168.72 390.034 1158.53 380.605 1149.08 370.141 z"/>
<path transform="translate(0,0)" fill="rgb(31,31,31)" d="M 926.836 439.67 C 929.581 443.053 929.625 442.005 929.62 445.429 C 931.056 479.226 929.854 520.613 929.897 555.017 C 939.883 560.84 948.888 570.106 941.443 582.137 C 938.705 586.55 934.306 589.676 929.237 590.81 C 911.244 594.848 893.844 569.462 921.23 555.029 L 921.217 485.022 C 921.201 477.886 920.777 453.956 921.883 447.788 L 921.72 446.881 C 925.297 444.643 925.242 443.871 926.836 439.67 z"/>
<path transform="translate(0,0)" fill="rgb(1,1,1)" d="M 926.836 439.67 C 929.581 443.053 929.625 442.005 929.62 445.429 C 928.014 453.775 928.642 467.946 928.651 476.733 L 928.732 531.515 C 928.692 538.481 929.604 546.278 928.177 552.83 C 925.205 552.634 925.098 552.324 922.291 551.258 L 922.413 481.772 C 922.422 474.612 922.828 453.422 921.883 447.788 L 921.72 446.881 C 925.297 444.643 925.242 443.871 926.836 439.67 z"/>
<path transform="translate(0,0)" fill="rgb(1,1,1)" d="M 353.812 545.938 C 348.759 541.763 342.833 534.852 337.742 529.985 C 332.145 523.239 327.318 527.617 319.296 527.329 C 304.339 526.846 294.964 519.277 297.236 503.127 C 302.019 468.587 354.5 482.583 339.156 515.535 C 337.224 519.684 354.746 535.214 358.122 538.725 C 359.287 539.835 361.431 541.689 362.234 542.928 C 360.374 549.91 365.628 547.112 357.985 550.661 L 353.812 545.938 z"/>
<path transform="translate(0,0)" fill="rgb(9,9,9)" d="M 353.812 545.938 C 354.436 540.352 349 536.296 345.251 531.997 C 351.452 535.689 351.546 540.054 358.122 538.725 C 359.287 539.835 361.431 541.689 362.234 542.928 C 360.374 549.91 365.628 547.112 357.985 550.661 L 353.812 545.938 z"/>
<path transform="translate(0,0)" fill="rgb(255,255,255)" d="M 313.535 492.601 C 318.252 490.491 323.742 491.107 327.873 494.21 C 332.005 497.313 334.127 502.413 333.415 507.531 C 332.704 512.649 329.271 516.977 324.449 518.835 C 317.262 521.605 309.176 518.145 306.217 511.033 C 303.258 503.921 306.504 495.747 313.535 492.601 z"/>
<path transform="translate(0,0)" fill="rgb(31,31,31)" d="M 1178.75 1409.39 C 1168.19 1403.82 1159.16 1394.43 1166.81 1382.17 C 1169.63 1377.67 1174.11 1374.47 1179.29 1373.26 C 1197.79 1369.06 1213.9 1393.93 1186.8 1409.5 C 1186.52 1434.76 1187.24 1460.69 1186.66 1485.74 C 1186.7 1494.4 1186.65 1503.06 1186.53 1511.71 L 1181.37 1517.17 L 1178.94 1514.2 C 1176.7 1513.95 1175.96 1513.78 1173.96 1512.76 C 1175.45 1511.24 1178 1508.71 1178.15 1506.7 C 1180.03 1480.97 1178.18 1450.07 1178.89 1424.54 C 1178.78 1419.5 1178.6 1414.42 1178.75 1409.39 z"/>
<path transform="translate(0,0)" fill="rgb(1,1,1)" d="M 1178.89 1424.54 C 1179.68 1419.87 1179.41 1416.47 1182.44 1412.79 L 1183.74 1412.9 C 1188.48 1425.29 1183.46 1481.8 1186.66 1485.74 C 1186.7 1494.4 1186.65 1503.06 1186.53 1511.71 L 1181.37 1517.17 L 1178.94 1514.2 C 1176.7 1513.95 1175.96 1513.78 1173.96 1512.76 C 1175.45 1511.24 1178 1508.71 1178.15 1506.7 C 1180.03 1480.97 1178.18 1450.07 1178.89 1424.54 z"/>
<path transform="translate(0,0)" fill="rgb(9,9,9)" d="M 1045.21 1640.77 C 1054.86 1632.14 1065.71 1620.72 1074.96 1611.46 L 1139.06 1547.31 C 1150.05 1536.32 1162.63 1522.96 1173.96 1512.76 C 1175.96 1513.78 1176.7 1513.95 1178.94 1514.2 L 1181.37 1517.17 L 1088.39 1610.06 C 1083.65 1614.8 1054.26 1643.73 1052.1 1647 C 1050.87 1645.81 1046.53 1642.89 1044.84 1642.75 C 1031.07 1641.56 1017 1642 1003.16 1642.03 L 917.782 1642.22 C 909.459 1642.24 888.52 1642.84 881.402 1641.04 C 932.665 1639.17 992.988 1640.86 1045.21 1640.77 z"/>
<path transform="translate(0,0)" fill="url(#Gradient1)" d="M 1175.46 837.734 C 1176.04 838.047 1179.1 841.427 1180.81 842.617 C 1183.24 838.546 1180.09 820.471 1181.2 812.933 C 1182.64 818.154 1180.8 829.06 1182.35 835.998 C 1190.32 843.836 1219.53 874.527 1226.45 877.886 C 1233.4 876.584 1239.23 874.812 1245.58 879.328 C 1258.7 888.648 1253.89 910.82 1236.96 912.397 C 1231.63 912.922 1226.32 911.272 1222.23 907.824 C 1211.48 898.722 1225.22 886.115 1208.82 874.203 C 1204.07 870.752 1175.13 842.613 1175.46 837.734 z"/>
<path transform="translate(0,0)" fill="rgb(1,1,1)" d="M 385.088 1160.43 C 392.304 1162.08 549.233 1162.44 554.858 1160.88 C 557.339 1163.3 558.47 1164.27 561.215 1166.4 C 560.543 1167.1 557.738 1169.56 556.945 1169.56 C 499.675 1169.47 442.381 1169.76 385.118 1169.5 C 381.002 1169.48 379.698 1167.22 377.146 1164.34 C 378.877 1163.92 380.604 1163.49 382.327 1163.04 C 383.407 1161.59 383.655 1161.42 385.088 1160.43 z"/>
<path transform="translate(0,0)" fill="rgb(9,9,9)" d="M 1029.14 303.295 C 1065.45 341.158 1104.71 378.667 1141.69 416.113 C 1139.06 418.291 1135.9 419.224 1134.7 420.317 C 1132.04 418.946 1025.59 312.721 1023.8 309.057 C 1024.16 307.809 1024.52 306.56 1024.88 305.312 L 1029.14 303.295 z"/>
<path transform="translate(0,0)" fill="rgb(31,31,31)" d="M 365.716 1486.46 C 369.654 1482.1 380.645 1473.09 380.432 1467.58 C 380.166 1460.69 376.86 1456.66 382.13 1450.07 C 389.231 1441.18 401.552 1439.8 409.744 1448.17 C 413.378 1451.89 415.34 1456.93 415.177 1462.12 C 414.833 1470.7 407.492 1479.9 398.248 1478.98 C 393.632 1478.52 389.774 1475.98 385.816 1478.68 C 381.713 1481.49 378.522 1486.6 374.602 1489.21 C 371.952 1488.28 363.229 1496.85 359.96 1499.01 L 358.899 1498.64 C 359.753 1494.39 363.512 1492.3 366.21 1488.43 L 365.716 1486.46 z"/>
<path transform="translate(0,0)" fill="rgb(31,31,31)" d="M 1052.82 1283.8 C 1051.44 1277.58 1049.28 1266.93 1053.97 1262.05 C 1082.27 1232.67 1109.56 1295.98 1059.65 1289.72 C 1057.58 1291.67 1051.04 1298.13 1049.07 1299.33 C 1043.5 1296.9 1047.27 1300.71 1041.43 1301.9 L 1041.22 1298.81 L 1039.11 1298.1 C 1043.64 1292.85 1047.89 1288.67 1052.82 1283.8 z"/>
<path transform="translate(0,0)" fill="rgb(31,31,31)" d="M 1088.59 310.019 L 1089.92 307.464 C 1088.42 302.229 1057.58 274.501 1051.2 266.696 L 1051.51 265.639 C 1055.62 267.836 1055.32 268.648 1058.52 267.716 C 1084.87 292.326 1111.13 321.014 1137.29 346.248 C 1142.66 351.424 1171.06 379.568 1173.54 383.084 C 1172.69 384.512 1172.74 385.773 1172.49 387.42 C 1166.85 385.243 1156.15 371.209 1149.08 370.141 C 1142.03 366.051 1097.31 318.833 1088.59 310.019 z"/>
<path transform="translate(0,0)" fill="rgb(31,31,31)" d="M 368.118 1155.75 C 329.373 1160.5 336.736 1113.94 366.677 1121.55 C 380.067 1124.95 379.298 1139.74 374.998 1149.98 C 378.486 1153.46 381.832 1156.72 385.088 1160.43 C 383.655 1161.42 383.407 1161.59 382.327 1163.04 C 380.604 1163.49 378.877 1163.92 377.146 1164.34 C 375.801 1163.41 369.667 1157.25 368.118 1155.75 z"/>
<path transform="translate(0,0)" fill="rgb(31,31,31)" d="M 166.27 1463.82 C 160.055 1465.75 159.279 1472.57 153.915 1475.49 C 140.643 1483.86 122.085 1472.29 127.233 1456.32 C 134.239 1434.59 154.911 1437.07 163.015 1456.6 C 172.75 1456.58 182.485 1456.71 192.216 1456.99 C 185.45 1457.97 169.626 1456.19 165.762 1459.76 C 165.898 1461.53 165.892 1462.09 166.27 1463.82 z"/>
<path transform="translate(0,0)" fill="rgb(9,9,9)" d="M 554.858 1160.88 C 558.006 1154.08 593.239 1123.44 599.833 1115.75 C 600.675 1114.76 606.065 1114.74 607.666 1114.71 L 604.095 1116.52 L 603.457 1118.91 C 604.905 1121.11 604.814 1121.48 607.093 1122.62 C 601.257 1124.19 568.273 1159.31 561.215 1166.4 C 558.47 1164.27 557.339 1163.3 554.858 1160.88 z"/>
<path transform="translate(0,0)" fill="rgb(9,9,9)" d="M 905.27 418.408 C 909.114 422.259 923.757 437.335 926.836 439.67 C 925.242 443.871 925.297 444.643 921.72 446.881 C 917.243 441.251 904.21 429.895 897.88 422.725 C 900.331 419.558 901.452 419.573 905.27 418.408 z"/>
</svg>